<?xml version="1.0" encoding="UTF-8"?>
<svg version="1.1" xmlns="http://www.w3.org/2000/svg" width="796" height="796">
<path d="M0 0 C2.42373206 0.81197703 4.81658159 1.68331738 7.20941162 2.58227539 C8.11138275 2.91171143 9.01335388 3.24114746 9.94265747 3.58056641 C12.90743683 4.66569463 15.86688127 5.76467536 18.82659912 6.86352539 C20.92711971 7.63477308 23.02803881 8.40493616 25.1293335 9.17407227 C29.49254239 10.7720904 33.85400292 12.37475244 38.21429443 13.98071289 C47.2299748 17.29734997 56.26610864 20.55709071 65.30236816 23.81713867 C70.18642676 25.57988684 75.06892785 27.3469389 79.95159912 29.11352539 C81.90992512 29.82187901 83.86825845 30.53021235 85.82659912 31.23852539 C97.57659923 35.48852543 97.57659923 35.48852543 100.51426697 36.55108643 C102.47204054 37.25921707 104.42981438 37.96734696 106.3875885 38.67547607 C111.29198853 40.4494042 116.1963837 42.22334575 121.10076904 43.99731445 C129.81102385 47.14789258 138.52130697 50.29839227 147.23178101 53.44836426 C170.96485041 62.03097433 194.69586569 70.61923909 218.42529297 79.21191406 C234.91220965 85.18193618 251.39992195 91.14974952 267.88909912 97.11352539 C269.78395618 97.79890872 271.67881295 98.48429283 273.57366943 99.16967773 C282.44216017 102.37732388 291.31100375 105.58398987 300.18055725 108.78869629 C304.41860805 110.32004797 308.65650065 111.85183721 312.89437866 113.38366699 C314.88809433 114.10418209 316.88188551 114.8244883 318.87576294 115.54455566 C325.1532071 117.81160361 331.42846204 120.08458723 337.70159912 122.36352539 C338.61498047 122.69477417 339.52836182 123.02602295 340.46942139 123.36730957 C343.14691157 124.33951736 345.82290609 125.31572949 348.49847412 126.29321289 C349.71981049 126.73602097 349.71981049 126.73602097 350.96582031 127.18777466 C356.58682082 129.24874709 356.58682082 129.24874709 357.70159912 130.36352539 C357.47213638 140.2630272 356.11989967 150.17610773 354.97822571 160.0018158 C354.80274269 161.53166354 354.6275241 163.06154163 354.45254368 164.59144694 C353.97512771 168.75896766 353.49400516 172.92605305 353.01223242 177.09307206 C352.49111823 181.60620968 351.97350974 186.11974957 351.45545959 190.63323975 C350.55657036 198.46058897 349.65548648 206.28768302 348.75290108 214.11460686 C347.43702331 225.52551936 346.12453601 236.93681993 344.81282293 248.34821183 C342.66978186 266.99103838 340.52406183 285.63355558 338.37664795 304.27587891 C336.31637134 322.1617906 334.25727096 340.047837 332.19989014 357.93408203 C332.07437909 359.02523313 331.94886804 360.11638423 331.81955362 361.24060052 C331.18841484 366.72758037 330.5573016 372.21456315 329.92620194 377.7015475 C328.67673533 388.5647642 327.42711147 399.42796282 326.17741394 410.29115295 C326.05539171 411.35185181 325.93336948 412.41255066 325.8076496 413.5053919 C324.04497166 428.82748603 322.28150504 444.14948922 320.51741028 459.47142029 C320.29317265 461.41910715 320.0689353 463.36679404 319.84469825 465.31448096 C318.86092756 473.85914022 317.87702952 482.40378476 316.89263673 490.94837238 C314.65986171 510.32953453 312.43138265 529.71117614 310.21236036 549.09391817 C309.51344971 555.19751302 308.8137849 561.30102148 308.11414717 567.40453302 C307.44926253 573.20588663 306.78574711 579.00739473 306.12326822 584.80902353 C305.71693739 588.36469563 305.309346 591.92022241 304.90140994 595.47571068 C304.7129925 597.1202894 304.52511161 598.7649297 304.33780877 600.40963574 C304.08175936 602.65745413 303.82381436 604.90504736 303.56541348 607.15259647 C303.42185561 608.40797563 303.27829774 609.66335478 303.13038963 610.95677572 C301.97617493 620.1270359 301.97617493 620.1270359 299.65814209 622.12353516 C298.76240479 622.595896 297.86666748 623.06825684 296.94378662 623.55493164 C295.93751221 624.10028564 294.93123779 624.64563965 293.89447021 625.20751953 C292.25212402 626.05817993 292.25212402 626.05817993 290.57659912 626.92602539 C288.27409842 628.16483331 285.97202398 629.40443375 283.67034912 630.64477539 C282.48954311 631.27272487 281.30855432 631.90033078 280.12738037 632.52758789 C275.06180871 635.24231842 270.06967393 638.08083138 265.07659912 640.92602539 C263.17846841 642.00078614 261.28003054 643.0750046 259.38128662 644.14868164 C258.44510498 644.67864746 257.50892334 645.20861328 256.54437256 645.75463867 C251.76466175 648.4597481 246.9830281 651.16145449 242.20159912 653.86352539 C240.28492336 654.94684264 238.36825669 656.03017597 236.45159912 657.11352539 C224.95159912 663.61352539 213.45159912 670.11352539 201.95159912 676.61352539 C200.52871582 677.41777954 200.52871582 677.41777954 199.0770874 678.23828125 C197.1588295 679.32249273 195.24053518 680.40663979 193.32220459 681.49072266 C188.55458434 684.18509532 183.78758535 686.88055487 179.02191162 689.57836914 C169.05405653 695.21940507 159.0743966 700.83820899 149.07659912 706.42602539 C140.57485059 711.17830826 132.10278302 715.97857373 123.65423584 720.82470703 C115.80003055 725.32313281 107.90056455 729.73898128 99.99847412 734.15258789 C93.37865311 737.85381787 86.78035087 741.58982423 80.20159912 745.36352539 C71.50101999 750.35434839 62.75544209 755.26150091 53.99847412 760.15258789 C46.53602156 764.32494437 39.10550265 768.54978681 31.68988037 772.8046875 C23.48055969 777.50728936 15.22451028 782.12542695 6.96136475 786.73266602 C5.95782959 787.29276367 4.95429443 787.85286133 3.92034912 788.42993164 C2.58906982 789.17158569 2.58906982 789.17158569 1.230896 789.92822266 C-1.34393322 791.33877748 -1.34393322 791.33877748 -3.81207275 793.109375 C-6.29840088 794.36352539 -6.29840088 794.36352539 -8.83233643 794.19042969 C-11.31176732 793.35904344 -13.46457049 792.39267023 -15.75543213 791.13305664 C-16.60814697 790.66706055 -17.46086182 790.20106445 -18.3394165 789.72094727 C-19.25400635 789.21112305 -20.16859619 788.70129883 -21.11090088 788.17602539 C-22.07576416 787.64428711 -23.04062744 787.11254883 -24.034729 786.56469727 C-32.20804338 782.03332336 -40.27204621 777.32089598 -48.32623291 772.58203125 C-55.8792646 768.15159439 -63.52348369 763.91974234 -71.22686768 759.75756836 C-78.27648711 755.94200376 -85.24455222 751.99879409 -92.19366455 748.00366211 C-99.03471604 744.07430571 -105.91011566 740.20941009 -112.79840088 736.36352539 C-121.38910104 731.56482678 -129.95267551 726.72252248 -138.49029541 721.83007812 C-144.87263156 718.1739476 -151.26889297 714.54317139 -157.67340088 710.92602539 C-159.11380737 710.11246582 -159.11380737 710.11246582 -160.58331299 709.2824707 C-164.42223735 707.11489508 -168.26168402 704.94824743 -172.10162354 702.7824707 C-182.88204438 696.70179052 -193.64833556 690.597739 -204.38928223 684.4475708 C-215.98929734 677.80566827 -227.62910288 671.23857416 -239.29840088 664.71899414 C-251.30651032 658.00892139 -263.27704811 651.23230566 -275.22418213 644.41430664 C-275.81523239 644.07734268 -276.40628265 643.74037872 -277.01524353 643.39320374 C-280.00858332 641.68535196 -282.99756392 639.97056627 -285.9788208 638.24169922 C-291.47680759 635.06101222 -296.98841017 631.9741219 -302.67340088 629.13696289 C-303.64906006 628.63302002 -304.62471924 628.12907715 -305.62994385 627.60986328 C-307.42723684 626.68734084 -309.2434584 625.80036037 -311.08013916 624.95898438 C-313.6319373 623.62320091 -315.32525444 622.46491534 -317.29840088 620.36352539 C-318.03768706 617.79602909 -318.03768706 617.79602909 -318.4121666 614.72486877 C-318.56149753 613.55885195 -318.71082847 612.39283512 -318.86468458 611.19148445 C-319.00781096 609.92825796 -319.15093734 608.66503147 -319.29840088 607.36352539 C-319.45457272 606.08054502 -319.61074456 604.79756466 -319.77164888 603.4757061 C-320.302459 599.07010966 -320.7928369 594.66028932 -321.28283691 590.25 C-321.47392423 588.548236 -321.66524733 586.84649846 -321.85678363 585.14478493 C-322.37895358 580.49948609 -322.8978098 575.85382238 -323.41609836 571.20808911 C-323.97728781 566.18318013 -324.54159411 561.15862105 -325.10551453 556.13401794 C-326.08231136 547.42684042 -327.05715808 538.71944636 -328.0306778 530.01190186 C-329.44466638 517.36471403 -330.86170524 504.71786939 -332.27947125 492.07110453 C-334.58847108 471.47366016 -336.89512451 450.87595375 -339.20025635 430.27807617 C-341.42410896 410.40653558 -343.64888403 390.53509869 -345.87506104 370.66381836 C-346.07976742 368.8365643 -346.07976742 368.8365643 -346.2886093 366.97239602 C-347.24625112 358.42438155 -348.20395629 349.87637419 -349.16168213 341.32836914 C-350.23459465 331.75228046 -351.30749628 322.17619056 -352.38037109 312.60009766 C-352.57636566 310.85074616 -352.57636566 310.85074616 -352.77631971 309.06605422 C-354.56405139 293.10944904 -356.3509155 277.15274694 -358.13707885 261.19596612 C-358.85655665 254.76879685 -359.57620898 248.34164712 -360.29586174 241.91449744 C-360.86773744 236.80694528 -361.43947788 231.69937806 -362.0109067 226.59177589 C-365.01854161 199.70271204 -365.01854161 199.70271204 -368.06892613 172.81847358 C-368.29549551 170.83599922 -368.52173209 168.85348684 -368.74796081 166.87097359 C-369.40007778 161.15803791 -370.05473879 155.44542492 -370.71556473 149.73348999 C-370.93229765 147.84146189 -371.14894265 145.94942371 -371.36547852 144.05737305 C-371.46238086 143.23040043 -371.55928321 142.40342781 -371.65912199 141.55139542 C-372.08536343 137.80399572 -372.41084087 134.13668353 -372.29840088 130.36352539 C-364.42453302 127.00803033 -356.50130166 123.90186199 -348.44293213 121.01977539 C-347.32816498 120.61806122 -346.21339783 120.21634705 -345.06484985 119.80245972 C-342.66627145 118.93822154 -340.26725131 118.07520854 -337.86782837 117.21331787 C-331.36558687 114.87718636 -324.86695653 112.53106448 -318.36871338 110.18383789 C-317.70077696 109.94265858 -317.03284054 109.70147926 -316.34466362 109.45299149 C-303.21418446 104.71045963 -290.11372888 99.88866108 -277.0199585 95.0456543 C-257.66773431 87.88791824 -238.29070311 80.80806016 -218.86090088 73.86352539 C-217.78113983 73.47757202 -216.70137878 73.09161865 -215.58889771 72.69396973 C-213.40062361 71.91185375 -211.2123454 71.1297493 -209.02406311 70.34765625 C-207.93510239 69.95843994 -206.84614166 69.56922363 -205.72418213 69.16821289 C-204.63155563 68.77770752 -203.53892914 68.38720215 -202.41319275 67.98486328 C-189.44782131 63.34833545 -176.49614756 58.67401831 -163.54840088 53.98852539 C-162.33977386 53.5511908 -161.13114685 53.1138562 -159.88589478 52.66326904 C-140.79835116 45.75264258 -121.74648574 38.74810858 -102.7069397 31.70648193 C-80.32658722 23.43294495 -57.88169715 15.34426465 -35.41560268 7.30706596 C-32.73688795 6.34867679 -30.05844021 5.3895425 -27.3799839 4.43043137 C-25.52957155 3.76837759 -23.67860238 3.10788072 -21.82762146 2.44741821 C-20.72815689 2.0539621 -19.62869232 1.66050598 -18.49591064 1.25512695 C-17.53532242 0.91209534 -16.57473419 0.56906372 -15.58503723 0.21563721 C-9.94516244 -1.88605419 -5.94153037 -1.64533231 0 0 Z " fill="#283593" transform="translate(405.29840087890625,1.636474609375)"/>
<path d="M0 0 C6.25332406 1.38962757 11.9155512 2.88600459 17.8515625 5.09765625 C19.10443306 5.55632584 19.10443306 5.55632584 20.38261414 6.02426147 C22.18663012 6.68545166 23.98969919 7.34923017 25.79190063 8.01535034 C28.69301101 9.08763774 31.59651192 10.15320791 34.50073242 11.21704102 C37.56338204 12.33901096 40.62586667 13.46141143 43.68760681 14.58586121 C53.57945958 18.21845266 63.48727378 21.80622439 73.39862061 25.38522339 C77.32510112 26.80317624 81.2510366 28.2226351 85.17700195 29.64201355 C88.14349522 30.7144692 91.11007064 31.78669735 94.07666016 32.85888672 C102.90584485 36.05014734 111.73413945 39.24386878 120.5625 42.43740845 C125.47262592 44.21356447 130.38279613 45.98959808 135.29296875 47.765625 C136.26462982 48.11708084 137.23629089 48.46853668 138.23739624 48.8306427 C144.0015908 50.91556095 149.76585607 53.00028356 155.53018188 55.08483887 C179.26325129 63.66744894 202.99426657 72.2557137 226.72369385 80.84838867 C243.21061053 86.81841079 259.69832283 92.78622413 276.1875 98.75 C278.08235706 99.43538333 279.97721383 100.12076744 281.87207031 100.80615234 C290.74056105 104.01379849 299.60940463 107.22046448 308.47895813 110.4251709 C312.71700893 111.95652258 316.95490153 113.48831182 321.19277954 115.0201416 C323.18649521 115.7406567 325.18028639 116.46096291 327.17416382 117.18103027 C333.45160798 119.44807822 339.72686292 121.72106183 346 124 C346.91338135 124.33124878 347.8267627 124.66249756 348.76782227 125.00378418 C351.44531244 125.97599197 354.12130697 126.9522041 356.796875 127.9296875 C358.01821136 128.37249557 358.01821136 128.37249557 359.26422119 128.82424927 C364.8852217 130.8852217 364.8852217 130.8852217 366 132 C365.77053726 141.89950181 364.41830055 151.81258234 363.27662659 161.63829041 C363.10114357 163.16813815 362.92592498 164.69801624 362.75094455 166.22792155 C362.27352859 170.39544227 361.79240604 174.56252766 361.3106333 178.72954667 C360.78951911 183.24268429 360.27191062 187.75622418 359.75386047 192.26971436 C358.85497124 200.09706358 357.95388736 207.92415763 357.05130196 215.75108147 C355.73542419 227.16199397 354.42293689 238.57329454 353.11122381 249.98468644 C350.96818274 268.62751299 348.82246271 287.27003019 346.67504883 305.91235352 C344.61477222 323.79826521 342.55567184 341.6843116 340.49829102 359.57055664 C340.37277997 360.66170774 340.24726892 361.75285884 340.1179545 362.87707513 C339.48681572 368.36405498 338.85570247 373.85103776 338.22460282 379.33802211 C336.97513621 390.20123881 335.72551235 401.06443742 334.47581482 411.92762756 C334.35379259 412.98832642 334.23177036 414.04902527 334.10605048 415.14186651 C332.34337254 430.46396064 330.57990592 445.78596383 328.81581116 461.1078949 C328.59157353 463.05558176 328.36733618 465.00326865 328.14309913 466.95095557 C327.15932844 475.49561483 326.1754304 484.04025937 325.19103761 492.58484698 C322.95826259 511.96600914 320.72978353 531.34765075 318.51076124 550.73039278 C317.81185059 556.83398763 317.11218578 562.93749608 316.41254805 569.04100763 C315.7476634 574.84236124 315.08414799 580.64386934 314.4216691 586.44549814 C314.01533827 590.00117024 313.60774688 593.55669702 313.19981082 597.11218528 C313.01139338 598.75676401 312.82351249 600.40140431 312.63620965 602.04611035 C312.38016024 604.29392874 312.12221524 606.54152197 311.86381435 608.78907108 C311.64847755 610.67213981 311.64847755 610.67213981 311.42879051 612.59325033 C310.27457581 621.76351051 310.27457581 621.76351051 307.95654297 623.76000977 C307.06080566 624.23237061 306.16506836 624.70473145 305.2421875 625.19140625 C304.23591309 625.73676025 303.22963867 626.28211426 302.19287109 626.84399414 C301.09797363 627.41110107 300.00307617 627.97820801 298.875 628.5625 C296.5724993 629.80130792 294.27042485 631.04090836 291.96875 632.28125 C290.78794399 632.90919948 289.6069552 633.53680539 288.42578125 634.1640625 C283.36020959 636.87879303 278.36807481 639.71730599 273.375 642.5625 C271.47686929 643.63726075 269.57843142 644.7114792 267.6796875 645.78515625 C266.74350586 646.31512207 265.80732422 646.84508789 264.84277344 647.39111328 C260.06306263 650.09622271 255.28142898 652.7979291 250.5 655.5 C248.58332424 656.58331725 246.66665757 657.66665057 244.75 658.75 C227.5 668.5 227.5 668.5 210.25 678.25 C209.30141113 678.78616943 208.35282227 679.32233887 207.37548828 679.87475586 C205.45723038 680.95896734 203.53893606 682.04311439 201.62060547 683.12719727 C196.85298522 685.82156993 192.08598623 688.51702948 187.3203125 691.21484375 C177.35245741 696.85587968 167.37279748 702.4746836 157.375 708.0625 C148.87325147 712.81478287 140.4011839 717.61504834 131.95263672 722.46118164 C124.09843143 726.95960742 116.19896543 731.37545589 108.296875 735.7890625 C101.67705399 739.49029247 95.07875175 743.22629884 88.5 747 C79.79942087 751.990823 71.05384296 756.89797552 62.296875 761.7890625 C54.83442244 765.96141898 47.40390353 770.18626142 39.98828125 774.44116211 C31.77896057 779.14376397 23.52291116 783.76190156 15.25976562 788.36914062 C14.25623047 788.92923828 13.25269531 789.48933594 12.21875 790.06640625 C10.8874707 790.8080603 10.8874707 790.8080603 9.52929688 791.56469727 C7.76386377 792.56652943 6.02156294 793.60975448 4.29882812 794.68334961 C2 796 2 796 0 796 C0 720.43 0 644.86 0 567 C4.00595691 565.66468103 5.12164541 566.73505558 8.86328125 568.578125 C9.44365646 568.86088791 10.02403168 569.14365082 10.62199402 569.4349823 C11.87228262 570.04604339 13.12028568 570.66179848 14.36621094 571.28170776 C16.31909128 572.25327921 18.27781202 573.21205901 20.23828125 574.16821289 C26.40582245 577.18529505 32.53869847 580.26234335 38.63671875 583.41796875 C39.63340576 583.93004883 40.63009277 584.44212891 41.65698242 584.96972656 C43.51425212 585.92858491 45.36506049 586.90009252 47.20825195 587.88574219 C48.03671631 588.3140332 48.86518066 588.74232422 49.71875 589.18359375 C50.42966797 589.56056396 51.14058594 589.93753418 51.87304688 590.32592773 C55.28122378 591.4060444 57.82451351 590.59953644 60.94677734 589.00708008 C61.88191162 588.39449341 61.88191162 588.39449341 62.8359375 587.76953125 C63.91911255 587.07089966 63.91911255 587.07089966 65.02416992 586.3581543 C66.18783081 585.59305542 66.18783081 585.59305542 67.375 584.8125 C69.08607702 583.70913254 70.79836941 582.60764811 72.51171875 581.5078125 C73.40938965 580.93063477 74.30706055 580.35345703 75.23193359 579.75878906 C79.84058566 576.83051869 84.51450328 574.01151811 89.1875 571.1875 C97.16559287 566.35499015 105.0992489 561.45792488 113 556.5 C121.7411762 551.0154652 130.53033511 545.61773125 139.35546875 540.26953125 C147.27713083 535.46033667 155.13458756 530.55282342 162.984375 525.62744141 C171.06136428 520.56742963 179.18841524 515.59336738 187.33984375 510.65429688 C189.08566124 509.59641763 190.83051325 508.53694278 192.57421875 507.47558594 C194.17802909 506.49999921 195.7847654 505.52920477 197.39453125 504.56347656 C198.12027344 504.12229492 198.84601563 503.68111328 199.59375 503.2265625 C200.22990234 502.84322754 200.86605469 502.45989258 201.52148438 502.06494141 C203.16658866 501.05381234 203.16658866 501.05381234 204 499 C203.19304687 498.75507813 202.38609375 498.51015625 201.5546875 498.2578125 C197.25986841 496.73810728 193.2277403 494.84649526 189.125 492.875 C187.86163818 492.272323 187.86163818 492.272323 186.57275391 491.6574707 C180.84290228 488.91360571 175.15351909 486.09577403 169.48291016 483.23193359 C163.19608585 480.06924617 156.84912481 477.03524436 150.5 474 C143.18686769 470.50105393 135.88039499 466.9924594 128.625 463.375 C127.98369141 463.05660156 127.34238281 462.73820312 126.68164062 462.41015625 C123.99530518 461.06253604 121.50614314 459.67076209 119 458 C120.21100389 454.36698833 121.0666186 454.07100213 124.28515625 452.171875 C125.19587891 451.62724609 126.10660156 451.08261719 127.04492188 450.52148438 C128.04072266 449.93689453 129.03652344 449.35230469 130.0625 448.75 C132.17922938 447.48578702 134.29508847 446.22011593 136.41015625 444.953125 C137.50344238 444.30021484 138.59672852 443.64730469 139.72314453 442.97460938 C144.85634533 439.88137975 149.92761606 436.69163582 155 433.5 C163.0275437 428.46230007 171.08745398 423.48280332 179.1875 418.5625 C180.14221191 417.98209961 181.09692383 417.40169922 182.08056641 416.80371094 C186.14655778 414.33372285 190.21556616 411.86907353 194.29296875 409.41796875 C195.48701662 408.69537439 196.6810306 407.97272402 197.875 407.25 C198.86242187 406.65703125 199.84984375 406.0640625 200.8671875 405.453125 C203.11562783 404.1748828 203.11562783 404.1748828 204 402 C202.86244263 401.67286011 202.86244263 401.67286011 201.7019043 401.33911133 C196.52872186 399.46778602 191.69406814 397.01670325 186.76953125 394.57421875 C185.67305267 394.03431808 184.5765741 393.49441742 183.4468689 392.93815613 C180.5052976 391.4891901 177.56532437 390.03704173 174.62597275 388.58358002 C169.21483833 385.9098098 163.79805504 383.24746751 158.3828125 380.58203125 C157.21157333 380.00509521 156.04033417 379.42815918 154.83360291 378.83374023 C142.59451751 372.80793126 130.31388873 366.87145015 118 361 C118 360.34 118 359.68 118 359 C120.00585938 357.54223633 120.00585938 357.54223633 122.84375 355.83203125 C123.89304687 355.19394531 124.94234375 354.55585938 126.0234375 353.8984375 C127.76171875 352.85546875 127.76171875 352.85546875 129.5 351.8125 C131.29641056 350.72348171 133.09120134 349.63182542 134.88598633 348.54013062 C136.11577841 347.79239753 137.34609157 347.04552085 138.5769043 346.29946899 C144.42003733 342.75591705 150.21336977 339.13500372 156 335.5 C164.60263294 330.1091699 173.22896798 324.75832626 181.875 319.4375 C183.47021484 318.45523438 183.47021484 318.45523438 185.09765625 317.453125 C191.37442525 313.59478157 197.67311377 309.77560926 204 306 C190.77651791 298.82794192 177.30541925 292.21210727 163.75914001 285.67982483 C163.02393631 285.32528732 162.2887326 284.97074982 161.53125 284.60546875 C160.7792482 284.24291489 160.0272464 283.88036102 159.25245667 283.50682068 C149.35734944 278.73160392 139.49294514 273.89351482 129.625 269.0625 C115.56871995 262.18353838 101.50450273 255.32157864 87.42364502 248.49307251 C78.53550768 244.18220233 69.6545038 239.85705806 60.78125 235.515625 C59.80619507 235.03859131 58.83114014 234.56155762 57.82653809 234.07006836 C53.08094394 231.74796832 48.33595173 229.42464844 43.59179688 227.09960938 C29.0915839 220.000602 14.54749363 213.00434879 0 206 C0 138.02 0 70.04 0 0 Z " fill="#1A237E" transform="translate(397,0)"/>
<path d="M0 0 C4.43864175 2.07811559 8.82865993 4.22773906 13.19140625 6.4609375 C20.72707164 10.30781564 28.32320813 14.00530086 35.9609375 17.64453125 C47.27442197 23.0366584 58.53360482 28.53502005 69.78070068 34.0640564 C75.37194471 36.81245739 80.9652309 39.5566955 86.55859375 42.30078125 C87.66192047 42.84211197 88.76524719 43.38344269 89.90200806 43.94117737 C98.96683895 48.38679276 108.04365091 52.80723973 117.12890625 57.2109375 C130.35102012 63.62038259 143.5554435 70.06543106 156.75390625 76.5234375 C170.80519619 83.39842995 184.86379846 90.25776007 198.93838501 97.08493042 C218.39647047 106.52426638 237.82412388 116.02601779 257.25390625 125.5234375 C254.74430206 128.1228796 252.21519059 129.90787067 249.1171875 131.7890625 C248.07755859 132.42392578 247.03792969 133.05878906 245.96679688 133.71289062 C244.84466797 134.39287109 243.72253906 135.07285156 242.56640625 135.7734375 C240.18635435 137.22468866 237.80812808 138.67892252 235.4296875 140.1328125 C234.82577179 140.50140381 234.22185608 140.86999512 233.59963989 141.24975586 C227.79066436 144.79789405 222.01948489 148.40526001 216.25390625 152.0234375 C206.47281473 158.15576018 196.65043465 164.21832141 186.8046875 170.24609375 C180.65140574 174.00590306 180.65140574 174.00590306 174.63671875 177.98046875 C172.25390625 179.5234375 172.25390625 179.5234375 170.25390625 179.5234375 C170.25390625 180.1834375 170.25390625 180.8434375 170.25390625 181.5234375 C171.08559326 181.77818848 171.91728027 182.03293945 172.77416992 182.29541016 C176.63805735 183.65900756 180.26285013 185.36065467 183.9296875 187.171875 C184.67650787 187.53694656 185.42332825 187.90201813 186.19277954 188.27815247 C188.65237012 189.48144729 191.10936525 190.68994634 193.56640625 191.8984375 C195.28244659 192.73906974 196.99867699 193.57931409 198.71508789 194.41918945 C202.33788791 196.1923608 205.95976404 197.96740063 209.58105469 199.74365234 C218.19187445 203.96545841 226.81364922 208.16481746 235.43417358 212.36676025 C239.84202607 214.51563042 244.24914489 216.66600382 248.65625 218.81640625 C250.14054325 219.54060949 251.62483683 220.26481204 253.10913086 220.98901367 C254.14690674 221.49537354 255.18468262 222.0017334 256.25390625 222.5234375 C254.93340973 226.48492707 253.32947749 226.96534294 249.76953125 229.078125 C249.20655838 229.4158493 248.64358551 229.75357361 248.06355286 230.10153198 C246.21493551 231.20841225 244.35943593 232.3031919 242.50390625 233.3984375 C241.21870635 234.16596616 239.93412393 234.93452965 238.65014648 235.70410156 C236.70472609 236.86996805 234.75896994 238.03522056 232.81126404 239.19726562 C227.27742417 242.49918942 221.78798389 245.86931188 216.31640625 249.2734375 C215.48463867 249.7897876 214.65287109 250.3061377 213.79589844 250.83813477 C212.13075122 251.87195961 210.46587282 252.90621755 208.80126953 253.94091797 C205.19745223 256.17974716 201.5904478 258.41341188 197.98291016 260.64624023 C196.1915661 261.75537355 194.40085459 262.86552925 192.61083984 263.97680664 C188.77089026 266.35889571 184.92628643 268.72949855 181.046875 271.046875 C180.42876953 271.4183667 179.81066406 271.7898584 179.17382812 272.17260742 C177.57238142 273.13243731 175.96608501 274.08416313 174.359375 275.03515625 C173.66457031 275.52628906 172.96976563 276.01742188 172.25390625 276.5234375 C172.25390625 277.1834375 172.25390625 277.8434375 172.25390625 278.5234375 C173.81625 279.25046875 173.81625 279.25046875 175.41015625 279.9921875 C185.44212396 284.67676552 195.3697104 289.53603881 205.25390625 294.5234375 C218.56985793 301.23665533 231.94004969 307.81206759 245.41015625 314.2109375 C249.04701054 315.94011669 252.661722 317.70339748 256.25390625 319.5234375 C255.03356304 323.18446712 254.11139807 323.4995331 250.86328125 325.421875 C249.93692871 325.97689697 249.01057617 326.53191895 248.05615234 327.10375977 C247.04891113 327.69600342 246.04166992 328.28824707 245.00390625 328.8984375 C242.88625339 330.16458659 240.76907558 331.4315305 238.65234375 332.69921875 C237.57823242 333.33939941 236.50412109 333.97958008 235.39746094 334.63916016 C230.77857456 337.40776571 226.2019287 340.24242492 221.62890625 343.0859375 C219.89065268 344.16410713 218.15237144 345.24223215 216.4140625 346.3203125 C215.13233154 347.11598633 215.13233154 347.11598633 213.82470703 347.92773438 C209.57356687 350.56642878 205.32025908 353.20161895 201.06640625 355.8359375 C200.21288574 356.36453369 199.35936523 356.89312988 198.47998047 357.43774414 C190.29880626 362.5013093 182.10323027 367.54138803 173.9074707 372.58129883 C166.34807628 377.23113213 158.79855774 381.89659147 151.25512695 386.57226562 C142.89280545 391.75287666 134.51381642 396.90633066 126.1328125 402.05664062 C125.09382813 402.69537109 124.05484375 403.33410156 122.984375 403.9921875 C121.99743652 404.59417969 121.01049805 405.19617188 119.99365234 405.81640625 C118.27182375 406.88921195 116.5680346 407.99212828 114.89306641 409.13671875 C114.20390137 409.60464844 113.51473633 410.07257813 112.8046875 410.5546875 C112.23016846 410.96267578 111.65564941 411.37066406 111.0637207 411.79101562 C108.35840876 412.88584037 107.05254247 412.40493192 104.25390625 411.5234375 C101.24016642 410.20006498 98.31667494 408.71707131 95.38671875 407.21875 C94.52363098 406.78371658 93.66054321 406.34868317 92.77130127 405.90046692 C90.92671079 404.97011945 89.08344528 404.03714113 87.24139404 403.10177612 C82.45483147 400.67154873 77.6586833 398.2603812 72.86328125 395.84765625 C71.45935623 395.14042168 71.45935623 395.14042168 70.02706909 394.41889954 C63.2652248 391.01732515 56.47374452 387.69284051 49.62890625 384.4609375 C42.11956076 380.91250441 34.6732753 377.25650923 27.25390625 373.5234375 C16.64705247 368.18963196 5.96137447 363.03815171 -4.76171875 357.94287109 C-18.68351328 351.32136313 -32.5893787 344.67402016 -46.35351562 337.72998047 C-51.66828589 335.04981775 -56.98722091 332.37796427 -62.30859375 329.7109375 C-62.91381866 329.4075647 -63.51904358 329.10419189 -64.14260864 328.79162598 C-73.14837316 324.28148426 -82.20257619 319.88343804 -91.30297852 315.56713867 C-99.16352565 311.82894486 -106.94353289 307.94049766 -114.71826172 304.02758789 C-124.67469965 299.02974711 -134.72142112 294.2263904 -144.78857422 289.45629883 C-146.1138792 288.82472108 -147.43298332 288.17999271 -148.74609375 287.5234375 C-148.74609375 286.8634375 -148.74609375 286.2034375 -148.74609375 285.5234375 C-147.25927734 284.41699219 -147.25927734 284.41699219 -145.14453125 283.1953125 C-144.35554443 282.73253906 -143.56655762 282.26976562 -142.75366211 281.79296875 C-141.88491455 281.29152344 -141.01616699 280.79007812 -140.12109375 280.2734375 C-132.55281034 275.8223863 -125.07765615 271.25849644 -117.68359375 266.5234375 C-116.29962402 265.63821411 -116.29962402 265.63821411 -114.88769531 264.73510742 C-113.05062631 263.55941555 -111.21386959 262.38323556 -109.37744141 261.20654297 C-105.38417662 258.65230587 -101.3792275 256.11676082 -97.37109375 253.5859375 C-96.62553223 253.11510742 -95.8799707 252.64427734 -95.11181641 252.15917969 C-84.67841076 245.57915799 -74.21104774 239.05311735 -63.74609375 232.5234375 C-86.33029004 220.39709464 -109.29258292 208.88683446 -132.50488281 198.01000977 C-138.05122775 195.39816797 -143.42510329 192.56858747 -148.74609375 189.5234375 C-145.06521073 185.2708642 -140.48368779 182.81466753 -135.68359375 180.0234375 C-133.86351083 178.94842836 -132.04452493 177.87156001 -130.2265625 176.79296875 C-129.30665527 176.24721191 -128.38674805 175.70145508 -127.43896484 175.13916016 C-123.41749214 172.72627653 -119.45327074 170.22748128 -115.49609375 167.7109375 C-113.92970916 166.71611173 -112.36330234 165.72132096 -110.796875 164.7265625 C-109.98814941 164.21287109 -109.17942383 163.69917969 -108.34619141 163.16992188 C-93.56792007 153.81173766 -78.69675979 144.60332432 -63.74609375 135.5234375 C-66.55158969 133.29419252 -69.30911154 131.65205211 -72.55078125 130.1328125 C-73.99155029 129.45109985 -73.99155029 129.45109985 -75.46142578 128.75561523 C-76.50411621 128.26649658 -77.54680664 127.77737793 -78.62109375 127.2734375 C-89.07506112 122.31706689 -99.44020078 117.20702825 -109.77279663 112.00317383 C-119.38899437 107.1626469 -129.05588412 102.45030641 -138.83056641 97.93530273 C-140.14033447 97.32150757 -140.14033447 97.32150757 -141.4765625 96.6953125 C-142.61194458 96.1708252 -142.61194458 96.1708252 -143.77026367 95.63574219 C-145.80377282 94.49096674 -147.18769893 93.24751398 -148.74609375 91.5234375 C-137.04298058 83.78294621 -125.30433017 76.15888758 -113.23046875 69.00805664 C-106.14234325 64.79703263 -99.18781041 60.39445442 -92.24462891 55.94946289 C-85.37685403 51.55425562 -78.47755431 47.21259346 -71.55859375 42.8984375 C-63.68281995 37.98644174 -55.82141864 33.05319574 -47.97900391 28.08813477 C-43.56976205 25.29934762 -39.15223919 22.52436312 -34.7265625 19.76171875 C-33.68999512 19.11452881 -32.65342773 18.46733887 -31.58544922 17.80053711 C-29.50406098 16.50317606 -27.421081 15.20836476 -25.33642578 13.91625977 C-20.94214677 11.18561584 -16.57486315 8.44477172 -12.3203125 5.5 C-11.68198486 5.06389404 -11.04365723 4.62778809 -10.38598633 4.1784668 C-8.76274329 3.05865589 -7.15590028 1.91516964 -5.55078125 0.76953125 C-2.74609375 -0.4765625 -2.74609375 -0.4765625 0 0 Z " fill="#5B6ABF" transform="translate(344.74609375,179.4765625)"/>
<path d="M0 0 C4.43864175 2.07811559 8.82865993 4.22773906 13.19140625 6.4609375 C20.72707164 10.30781564 28.32320813 14.00530086 35.9609375 17.64453125 C47.27442197 23.0366584 58.53360482 28.53502005 69.78070068 34.0640564 C75.37194471 36.81245739 80.9652309 39.5566955 86.55859375 42.30078125 C87.66192047 42.84211197 88.76524719 43.38344269 89.90200806 43.94117737 C98.96683895 48.38679276 108.04365091 52.80723973 117.12890625 57.2109375 C130.35102012 63.62038259 143.5554435 70.06543106 156.75390625 76.5234375 C170.80519619 83.39842995 184.86379846 90.25776007 198.93838501 97.08493042 C218.39647047 106.52426638 237.82412388 116.02601779 257.25390625 125.5234375 C254.74430206 128.1228796 252.21519059 129.90787067 249.1171875 131.7890625 C248.07755859 132.42392578 247.03792969 133.05878906 245.96679688 133.71289062 C244.84466797 134.39287109 243.72253906 135.07285156 242.56640625 135.7734375 C240.18635435 137.22468866 237.80812808 138.67892252 235.4296875 140.1328125 C234.82577179 140.50140381 234.22185608 140.86999512 233.59963989 141.24975586 C227.79066321 144.79789475 222.01954983 148.40536214 216.25390625 152.0234375 C206.85509787 157.91409233 197.41736912 163.73898346 187.96484375 169.54296875 C179.71814564 174.61104694 171.50569531 179.73188751 163.30395508 184.87231445 C154.78671593 190.20460919 146.23578809 195.48125438 137.65722656 200.71435547 C132.58091063 203.81911467 127.54856705 206.96189518 122.6015625 210.26953125 C121.7350708 210.84227783 120.8685791 211.41502441 119.97583008 212.00512695 C118.37667802 213.06822745 116.78832858 214.14783916 115.21362305 215.24682617 C114.51019775 215.71193604 113.80677246 216.1770459 113.08203125 216.65625 C112.48293945 217.06762207 111.88384766 217.47899414 111.26660156 217.90283203 C106.41058774 219.40016186 100.79727201 215.4440123 96.50390625 213.35546875 C95.86149994 213.04394867 95.21909363 212.73242859 94.55722046 212.41146851 C92.45422649 211.39012394 90.35401598 210.36319799 88.25390625 209.3359375 C86.7769263 208.61679786 85.29987446 207.89780587 83.82275391 207.17895508 C73.42686783 202.11138782 63.07594574 196.95618429 52.74243164 191.7628479 C43.88163186 187.31040837 34.97529672 182.97009108 26.01318359 178.7253418 C18.03841458 174.93331471 10.14326626 170.98888288 2.25390625 167.0234375 C-6.45622398 162.64548111 -15.18363789 158.31804651 -23.99609375 154.1484375 C-34.40320205 149.22270659 -44.69053873 144.06971328 -54.97875977 138.90197754 C-64.66713341 134.03756891 -74.38761271 129.26181169 -84.1875 124.625 C-92.74375856 120.5610832 -101.20670874 116.31572905 -109.66677856 112.05645752 C-119.3181991 107.19824699 -129.01958056 102.46703091 -138.83007812 97.93554688 C-139.70341797 97.52626953 -140.57675781 97.11699219 -141.4765625 96.6953125 C-142.61194458 96.1708252 -142.61194458 96.1708252 -143.77026367 95.63574219 C-145.80377282 94.49096674 -147.18769893 93.24751398 -148.74609375 91.5234375 C-137.04298058 83.78294621 -125.30433017 76.15888758 -113.23046875 69.00805664 C-106.14234325 64.79703263 -99.18781041 60.39445442 -92.24462891 55.94946289 C-85.37685403 51.55425562 -78.47755431 47.21259346 -71.55859375 42.8984375 C-63.68281995 37.98644174 -55.82141864 33.05319574 -47.97900391 28.08813477 C-43.56976205 25.29934762 -39.15223919 22.52436312 -34.7265625 19.76171875 C-33.68999512 19.11452881 -32.65342773 18.46733887 -31.58544922 17.80053711 C-29.50406098 16.50317606 -27.421081 15.20836476 -25.33642578 13.91625977 C-20.94214677 11.18561584 -16.57486315 8.44477172 -12.3203125 5.5 C-11.68198486 5.06389404 -11.04365723 4.62778809 -10.38598633 4.1784668 C-8.76274329 3.05865589 -7.15590028 1.91516964 -5.55078125 0.76953125 C-2.74609375 -0.4765625 -2.74609375 -0.4765625 0 0 Z " fill="#E7E9F5" transform="translate(344.74609375,179.4765625)"/>
<path d="M0 0 C1.66335573 1.02037082 3.31763292 2.0556412 4.96411133 3.10302734 C9.70529811 5.98383264 14.70378317 8.34701785 19.68551636 10.77981567 C22.11922903 11.97448029 24.54047102 13.19334475 26.9622345 14.41200256 C33.6425234 17.77161511 40.36530179 21.03107536 47.12280273 24.23193359 C56.05913737 28.466182 64.91293706 32.85372267 73.74780273 37.29443359 C83.34340693 42.1174612 92.97448054 46.84679808 102.68286133 51.43969727 C113.09747418 56.39196682 123.39035309 61.58888619 133.6862793 66.78222656 C137.06055738 68.48300163 140.4430979 70.16631317 143.83093262 71.83990479 C145.72329265 72.7822285 147.60396764 73.74547984 149.48510742 74.70996094 C151.20455566 75.56195068 151.20455566 75.56195068 152.95874023 76.43115234 C154.45993408 77.19045044 154.45993408 77.19045044 155.99145508 77.96508789 C158.70021154 79.04003621 158.70021154 79.04003621 161.27636719 78.14013672 C163.92520155 76.69783947 166.51595611 75.2159829 169.07983398 73.62646484 C170.63202637 72.66788574 170.63202637 72.66788574 172.21557617 71.68994141 C173.87121582 70.65885254 173.87121582 70.65885254 175.56030273 69.60693359 C176.71279624 68.89278268 177.86546807 68.17891947 179.01831055 67.46533203 C182.00329919 65.61596215 184.98495572 63.76129611 187.96539307 61.90460205 C189.71510111 60.8148017 191.46548176 59.72609001 193.21606445 58.63769531 C198.42299815 55.39891468 203.62741229 52.15608623 208.82592773 48.90380859 C209.69024414 48.36820312 210.55456055 47.83259766 211.44506836 47.28076172 C213.40240066 46.0173776 215.20615249 44.67223727 217.04467773 43.24755859 C219.74780273 41.79443359 219.74780273 41.79443359 222.40966797 42.46191406 C226.32413557 44.02449463 230.08424747 45.79470737 233.86108398 47.66162109 C235.04803864 48.24259048 235.04803864 48.24259048 236.25897217 48.83529663 C238.86112637 50.10988614 241.46068992 51.38966986 244.06030273 52.66943359 C245.87122624 53.55752263 247.68234573 54.44521212 249.49365234 55.33251953 C253.28940858 57.19231721 257.08429708 59.05386967 260.87866211 60.91650391 C269.59902609 65.19513953 278.3313182 69.44932562 287.06283569 73.70513916 C291.44917473 75.84332658 295.8347978 77.98298127 300.22045898 80.12255859 C301.691891 80.84033927 303.16332616 81.55811351 304.63476562 82.27587891 C305.66206787 82.77700195 306.68937012 83.278125 307.74780273 83.79443359 C306.42730621 87.75592316 304.82337398 88.23633904 301.26342773 90.34912109 C300.70045486 90.6868454 300.13748199 91.0245697 299.55744934 91.37252808 C297.70883199 92.47940834 295.85333241 93.57418799 293.99780273 94.66943359 C292.71260284 95.43696225 291.42802041 96.20552574 290.14404297 96.97509766 C288.19862257 98.14096414 286.25286642 99.30621665 284.30516052 100.46826172 C278.77132014 103.77018583 273.28190132 107.1403414 267.81030273 110.54443359 C266.96910889 111.06658447 266.12791504 111.58873535 265.26123047 112.12670898 C263.58654904 113.16637268 261.91214726 114.20648697 260.23803711 115.24707031 C256.01476947 117.87129289 251.78768878 120.48935215 247.56030273 123.10693359 C246.70637939 123.63577148 245.85245605 124.16460937 244.97265625 124.70947266 C236.79191754 129.7728398 228.59672248 134.81263272 220.40136719 139.85229492 C213.67667133 143.98869964 206.95876584 148.13579208 200.24780273 152.29443359 C198.57074908 153.33224197 196.8936652 154.37000151 195.21655273 155.40771484 C191.68595301 157.59260277 188.15833325 159.78221612 184.63244629 161.97470093 C182.25617092 163.45110636 179.87779912 164.92411159 177.49902344 166.39648438 C175.78532196 167.45867826 174.07414949 168.52494889 172.36303711 169.59130859 C171.31438477 170.23970703 170.26573242 170.88810547 169.18530273 171.55615234 C168.25588867 172.13324951 167.32647461 172.71034668 166.36889648 173.30493164 C161.45107943 176.09960394 161.45107943 176.09960394 158.74780273 176.79443359 C155.96240234 175.95849609 155.96240234 175.95849609 152.90014648 174.41943359 C151.75175293 173.85329346 150.60335937 173.28715332 149.42016602 172.70385742 C148.17505665 172.06768597 146.93010639 171.43120302 145.68530273 170.79443359 C144.38907137 170.14787623 143.09201922 169.50296203 141.79418945 168.85961914 C138.42899202 167.18640006 135.07454698 165.49272319 131.72247314 163.793396 C128.62571598 162.22678318 125.52087073 160.67645991 122.41577148 159.12646484 C118.88962883 157.3652165 115.36423461 155.6026285 111.84228516 153.83300781 C104.76461854 150.28001221 97.65483005 146.80943683 90.49780273 143.41943359 C81.18164697 139.006387 71.95837051 134.42233662 62.74780273 129.79443359 C52.68321787 124.73744207 42.58905734 119.76631887 32.40795898 114.94677734 C24.46575011 111.17226223 16.60417788 107.24327255 8.74780273 103.29443359 C0.07924641 98.93740331 -8.60601113 94.62994695 -17.37719727 90.48193359 C-28.20473173 85.35889116 -38.90383476 79.98857924 -49.60665894 74.61157227 C-60.05419165 69.36442497 -70.52465891 64.18795228 -81.11352539 59.22998047 C-86.62583488 56.63569855 -91.96398698 53.8197892 -97.25219727 50.79443359 C-93.57131424 46.54186029 -88.9897913 44.08566363 -84.18969727 41.29443359 C-82.36961434 40.21942446 -80.55062844 39.1425561 -78.73266602 38.06396484 C-77.81275879 37.51820801 -76.89285156 36.97245117 -75.94506836 36.41015625 C-71.92359913 33.99727471 -67.9593021 31.49858604 -64.00219727 28.98193359 C-58.80844596 25.68153823 -53.61134683 22.38761774 -48.39282227 19.12646484 C-47.38533936 18.49587158 -46.37785645 17.86527832 -45.33984375 17.21557617 C-43.28799236 15.9389083 -41.23020528 14.67172925 -39.16650391 13.41430664 C-34.30169717 10.4328267 -29.64496601 7.40210031 -25.17016602 3.85693359 C-15.93627487 -3.26896546 -10.5618073 -6.07128465 0 0 Z " fill="#9EA7D9" transform="translate(293.252197265625,318.20556640625)"/>
</svg>
