<?xml version="1.0" encoding="UTF-8"?>
<svg version="1.1" xmlns="http://www.w3.org/2000/svg" width="1371" height="223">
<path d="M0 0 C8.16248966 5.21726143 15.55753099 11.10852337 22.65234375 17.6953125 C26.06292502 16.22046654 28.25835247 14.28383543 30.90234375 11.6953125 C40.25366364 3.14513966 51.38455608 -3.89458568 63.65234375 -7.3046875 C64.5959375 -7.58699219 64.5959375 -7.58699219 65.55859375 -7.875 C72.65919073 -9.33221207 80.61606107 -9.4358756 86.9453125 -5.625 C95.45546361 0.95722214 98.88562544 10.09175146 100.3359375 20.4921875 C101.64528235 33.74728356 100.89463509 48.96843848 96.65234375 61.6953125 C98.35390625 61.97375 98.35390625 61.97375 100.08984375 62.2578125 C112.75070424 65.11349554 124.31424663 70.9623499 134.65234375 78.6953125 C135.26464844 79.12457031 135.87695312 79.55382812 136.5078125 79.99609375 C142.70151557 84.62942947 147.89953283 92.53657665 149.0234375 100.23828125 C149.26655534 109.92009162 146.12578625 116.38159254 139.52734375 123.3828125 C129.65963258 132.64704381 111.6789322 144.6953125 97.65234375 144.6953125 C97.86890625 145.72785156 98.08546875 146.76039063 98.30859375 147.82421875 C101.42517961 163.74727365 103.55762735 182.20352956 97.65234375 197.6953125 C97.38550781 198.43523437 97.11867187 199.17515625 96.84375 199.9375 C94.08781216 206.4292647 89.09268605 210.89695175 82.90234375 214.1328125 C67.3859107 216.81834899 53.59968219 211.32899469 40.91015625 202.48046875 C34.96120697 198.13112583 29.29962259 193.42522414 23.65234375 188.6953125 C23.09289062 189.24058594 22.5334375 189.78585938 21.95703125 190.34765625 C8.78431796 202.7367837 -8.42769315 214.47919143 -27.03515625 215.0703125 C-34.15022436 214.84701507 -40.29973251 212.87966662 -45.34765625 207.6953125 C-55.78941561 193.04567996 -55.10181074 173.06988597 -52.26806641 156.02416992 C-51.68829603 152.8987295 -51.04693215 149.79626811 -50.34765625 146.6953125 C-51.18683594 146.36660156 -51.18683594 146.36660156 -52.04296875 146.03125 C-54.81726341 144.93402092 -57.58198129 143.81409056 -60.34765625 142.6953125 C-61.45625 142.25960937 -62.56484375 141.82390625 -63.70703125 141.375 C-77.30132601 135.84665346 -94.25068649 126.99778739 -100.34765625 112.6953125 C-102.71368375 104.92609721 -102.96431402 98.75600132 -99.22265625 91.51953125 C-88.80442933 74.38273186 -68.91436394 65.9683685 -50.34765625 60.6953125 C-50.56421875 59.66277344 -50.78078125 58.63023438 -51.00390625 57.56640625 C-54.11670896 41.66267993 -56.27545634 23.16356337 -50.34765625 7.6953125 C-50.05761719 6.9321875 -49.76757812 6.1690625 -49.46875 5.3828125 C-46.80023451 -0.69113072 -42.70077656 -4.45937704 -36.59765625 -7.1171875 C-24.21007972 -11.18405225 -10.79533015 -6.30916505 0 0 Z M-37.34765625 7.6953125 C-42.34965119 18.02366383 -42.74109165 28.09773004 -41.53515625 39.3203125 C-41.45201172 40.20976563 -41.36886719 41.09921875 -41.28320312 42.015625 C-40.73978963 47.41009469 -39.79123325 52.46919829 -38.34765625 57.6953125 C-37.75557373 57.63545166 -37.16349121 57.57559082 -36.5534668 57.51391602 C-35.7262915 57.43069092 -34.89911621 57.34746582 -34.046875 57.26171875 C-33.13212402 57.16906738 -32.21737305 57.07641602 -31.27490234 56.98095703 C-29.37530638 56.79559195 -27.47457269 56.62141611 -25.57275391 56.46044922 C-22.76412112 56.21917136 -19.9635015 55.9288179 -17.16015625 55.6328125 C-16.21462891 55.56126953 -15.26910156 55.48972656 -14.29492188 55.41601562 C-8.98230706 54.81256182 -5.9906271 53.93318723 -2.390625 49.85546875 C-1.35113016 48.4875176 -0.33346055 47.1024478 0.65234375 45.6953125 C1.626875 44.47328125 1.626875 44.47328125 2.62109375 43.2265625 C3.12640625 42.55625 3.63171875 41.8859375 4.15234375 41.1953125 C7.47416289 36.86414242 11.00983 32.75854213 14.65234375 28.6953125 C9.80922277 17.46920643 -4.97818159 10.52739876 -15.47265625 5.6953125 C-22.65184796 2.89019786 -32.04918836 0.79124828 -37.34765625 7.6953125 Z M44.49609375 16.04296875 C39.95299402 19.70065254 35.74066385 23.53411682 31.65234375 27.6953125 C32.25820312 28.32695313 32.8640625 28.95859375 33.48828125 29.609375 C38.99798331 35.49204151 43.87757508 41.52793752 48.42724609 48.18603516 C50.55233575 51.46066311 50.55233575 51.46066311 53.65234375 53.6953125 C58.06983582 54.50390615 62.52142822 55.10861963 66.96484375 55.7578125 C68.20169922 55.94408203 69.43855469 56.13035156 70.71289062 56.32226562 C72.50243164 56.58620117 72.50243164 56.58620117 74.328125 56.85546875 C75.42036377 57.01668213 76.51260254 57.17789551 77.63793945 57.34399414 C80.3469726 57.65972255 82.92910986 57.76322751 85.65234375 57.6953125 C88.94005025 42.41139121 92.57612385 23.17333378 84.5859375 8.7734375 C82.62698251 6.05805435 80.55107803 4.64364631 77.58984375 3.1328125 C65.24976925 1.76169311 54.04006772 8.94404751 44.49609375 16.04296875 Z M20.33984375 38.9609375 C19.43827253 39.95053194 18.54267709 40.94559535 17.65234375 41.9453125 C16.76546875 42.91984375 15.87859375 43.894375 14.96484375 44.8984375 C12.44788667 47.72875772 12.44788667 47.72875772 10.65234375 51.6953125 C19.23234375 51.6953125 27.81234375 51.6953125 36.65234375 51.6953125 C32.13421717 45.59856911 32.13421717 45.59856911 27.40234375 39.6953125 C26.9228125 39.1178125 26.44328125 38.5403125 25.94921875 37.9453125 C23.47574085 35.56123741 22.64615368 36.7013771 20.33984375 38.9609375 Z M-3.390625 68.6796875 C-4.44361034 70.65038323 -5.43388372 72.65633248 -6.34765625 74.6953125 C-7.2660333 76.24452563 -8.19606307 77.78692394 -9.140625 79.3203125 C-9.94635181 80.77448824 -10.74470365 82.2327779 -11.53515625 83.6953125 C-11.93412109 84.41203125 -12.33308594 85.12875 -12.74414062 85.8671875 C-13.55266346 87.34055383 -14.34020166 88.825624 -15.10668945 90.32128906 C-15.99267885 92.0162253 -16.94468238 93.67731281 -17.93823242 95.31152344 C-20.89331717 100.60156251 -20.89331717 100.60156251 -20.77758789 106.48242188 C-19.47891229 109.46543563 -17.97542037 112.16572493 -16.28515625 114.9453125 C-15.72401123 115.93805176 -15.16286621 116.93079102 -14.5847168 117.95361328 C-7.47949167 131.0400757 -7.47949167 131.0400757 1.65234375 142.6953125 C2.98126414 142.80863986 4.31602941 142.85480054 5.6496582 142.87231445 C6.49756424 142.88514969 7.34547028 142.89798492 8.21907043 142.91120911 C9.60336494 142.92228951 9.60336494 142.92228951 11.015625 142.93359375 C12.43091743 142.94570137 12.43091743 142.94570137 13.87480164 142.95805359 C15.87639518 142.97191242 17.87801255 142.98262649 19.87963867 142.99047852 C22.94169968 143.00768247 26.00267885 143.05155122 29.06445312 143.09570312 C31.00650245 143.10583033 32.94856099 143.11434635 34.890625 143.12109375 C35.80741531 143.13860184 36.72420563 143.15610992 37.66877747 143.17414856 C42.7217548 143.21121424 42.7217548 143.21121424 47.09155273 140.93139648 C47.60661377 140.19348877 48.1216748 139.45558105 48.65234375 138.6953125 C49.12381836 138.02338867 49.59529297 137.35146484 50.08105469 136.65917969 C50.51192383 135.94407227 50.94279297 135.22896484 51.38671875 134.4921875 C51.87575684 133.68515381 52.36479492 132.87812012 52.86865234 132.04663086 C54.97790805 128.46908875 57.04921518 124.8701579 59.11621094 121.26806641 C60.51254704 118.92944755 61.99952627 116.71441708 63.56640625 114.48828125 C66.04489762 110.76073117 68.2759951 107.24160423 68.65234375 102.6953125 C67.37748847 96.54474222 63.77462078 91.3400224 60.32226562 86.19775391 C58.59251677 83.6056595 56.96790058 80.96723734 55.35546875 78.30078125 C53.30665102 74.94162279 51.24522432 71.59341173 49.12109375 68.28125 C48.69248047 67.6114209 48.26386719 66.9415918 47.82226562 66.25146484 C46.71861632 64.54253987 46.71861632 64.54253987 44.65234375 63.6953125 C43.3074571 63.55168405 41.95631776 63.46411913 40.60498047 63.40722656 C39.77006073 63.37179749 38.93514099 63.33636841 38.07492065 63.29986572 C34.24014265 63.17553698 30.4054863 63.08526014 26.56933594 63.015625 C24.55146436 62.96898399 22.53396834 62.900833 20.51757812 62.81054688 C7.04388153 61.63097288 7.04388153 61.63097288 -3.390625 68.6796875 Z M61.65234375 65.6953125 C63.00880835 69.08647401 64.27547464 71.98525088 66.03515625 75.12109375 C66.70224609 76.31508789 66.70224609 76.31508789 67.3828125 77.53320312 C67.84300781 78.34982422 68.30320313 79.16644531 68.77734375 80.0078125 C69.47923828 81.26174805 69.47923828 81.26174805 70.1953125 82.54101562 C71.34496965 84.59397483 72.49738177 86.64533452 73.65234375 88.6953125 C76.87207077 85.7362831 77.93886506 82.82748762 79.40234375 78.6953125 C80.07523438 76.8390625 80.07523438 76.8390625 80.76171875 74.9453125 C81.96924435 71.71982282 81.96924435 71.71982282 80.65234375 68.6953125 C71.24734375 67.2103125 71.24734375 67.2103125 61.65234375 65.6953125 Z M-24.97265625 67.1328125 C-25.77445313 67.28041016 -26.57625 67.42800781 -27.40234375 67.58007812 C-29.3852048 67.9459632 -31.36658002 68.31988371 -33.34765625 68.6953125 C-34.37592556 71.83199158 -34.341523 73.52715992 -33.1328125 76.5859375 C-32.85888672 77.29492188 -32.58496094 78.00390625 -32.30273438 78.734375 C-32.00818359 79.46398437 -31.71363281 80.19359375 -31.41015625 80.9453125 C-30.97413086 82.06292969 -30.97413086 82.06292969 -30.52929688 83.203125 C-29.81191903 85.03773064 -29.08108186 86.86706315 -28.34765625 88.6953125 C-25.89118307 86.44065483 -24.29753099 84.13685764 -22.6484375 81.24609375 C-22.16181641 80.39853516 -21.67519531 79.55097656 -21.17382812 78.67773438 C-20.67431641 77.79666016 -20.17480469 76.91558594 -19.66015625 76.0078125 C-19.14904297 75.11513672 -18.63792969 74.22246094 -18.11132812 73.30273438 C-16.85246767 71.10266985 -15.59810029 68.90016803 -14.34765625 66.6953125 C-17.73152343 65.00337891 -21.37950574 66.44743071 -24.97265625 67.1328125 Z M-84.34765625 91.2578125 C-88.02582576 95.22775988 -90.30709329 98.50491269 -90.41015625 104.0703125 C-87.76500811 113.09493556 -80.52621112 119.15864589 -72.57080078 123.71240234 C-70.57410037 124.80155739 -68.5619924 125.85086363 -66.53515625 126.8828125 C-65.59470459 127.36427734 -65.59470459 127.36427734 -64.63525391 127.85546875 C-58.74604185 130.73682193 -52.58841038 132.71675941 -46.34765625 134.6953125 C-44.72043076 130.48783633 -43.09626969 126.2791837 -41.47265625 122.0703125 C-41.01246094 120.88050781 -40.55226562 119.69070312 -40.078125 118.46484375 C-39.41103516 116.73427734 -39.41103516 116.73427734 -38.73046875 114.96875 C-38.11776123 113.38199463 -38.11776123 113.38199463 -37.49267578 111.76318359 C-37.11481934 110.75078613 -36.73696289 109.73838867 -36.34765625 108.6953125 C-35.93410889 107.68670166 -35.52056152 106.67809082 -35.09448242 105.63891602 C-34.19802958 102.10556135 -34.63224038 100.65698681 -36.015625 97.32421875 C-36.41458984 96.33744141 -36.81355469 95.35066406 -37.22460938 94.33398438 C-37.65708984 93.31884766 -38.08957031 92.30371094 -38.53515625 91.2578125 C-38.94830078 90.24654297 -39.36144531 89.23527344 -39.78710938 88.19335938 C-40.95318853 85.35138902 -42.14365433 82.52139437 -43.34765625 79.6953125 C-43.66814941 78.94233887 -43.98864258 78.18936523 -44.31884766 77.41357422 C-44.99170208 75.83935624 -45.66900577 74.26704048 -46.34765625 72.6953125 C-59.06488175 72.6953125 -75.40178572 82.84684969 -84.34765625 91.2578125 Z M93.65234375 72.6953125 C92.50777561 75.43278192 91.3672261 78.171714 90.234375 80.9140625 C89.0960067 83.65733141 87.9185056 86.38116933 86.7265625 89.1015625 C86.07671285 90.61193181 85.42697247 92.12234815 84.77734375 93.6328125 C84.45499756 94.3539624 84.13265137 95.0751123 83.80053711 95.81811523 C81.56676391 101.06659413 81.41866828 103.54531772 83.44873047 108.72875977 C84.44025098 111.17121722 85.47739759 113.58992573 86.52734375 116.0078125 C89.04862401 121.85847567 91.46268124 127.71161213 93.65234375 133.6953125 C109.66611541 130.4382742 125.87524257 122.04481603 135.65234375 108.6953125 C137.74205374 104.75701291 137.89094987 103.48130913 136.58984375 99.1953125 C133.76912469 92.97448343 128.89626362 88.72837035 123.21484375 85.1953125 C122.6101123 84.81366943 122.00538086 84.43202637 121.38232422 84.03881836 C112.79955063 78.77186443 103.55575856 74.67599546 93.65234375 72.6953125 Z M-28.34765625 117.6953125 C-29.51693129 120.84018257 -30.68263789 123.98636331 -31.84765625 127.1328125 C-32.34845703 128.47956055 -32.34845703 128.47956055 -32.859375 129.85351562 C-33.17519531 130.70751953 -33.49101563 131.56152344 -33.81640625 132.44140625 C-34.25629883 133.62754517 -34.25629883 133.62754517 -34.70507812 134.83764648 C-35.40213984 136.52521179 -35.40213984 136.52521179 -35.34765625 137.6953125 C-32.59927776 138.22638564 -29.8495325 138.74547131 -27.09765625 139.2578125 C-26.32035156 139.40927734 -25.54304688 139.56074219 -24.7421875 139.71679688 C-23.98808594 139.85537109 -23.23398438 139.99394531 -22.45703125 140.13671875 C-21.76577148 140.26763916 -21.07451172 140.39855957 -20.36230469 140.53344727 C-18.13477683 140.71241612 -16.47258663 140.34737447 -14.34765625 139.6953125 C-16.48755012 136.02514827 -18.6355399 132.35978938 -20.78515625 128.6953125 C-21.39681641 127.64601562 -22.00847656 126.59671875 -22.63867188 125.515625 C-23.51362305 124.02675781 -23.51362305 124.02675781 -24.40625 122.5078125 C-25.21533813 121.12529297 -25.21533813 121.12529297 -26.04077148 119.71484375 C-26.68767944 118.71517578 -26.68767944 118.71517578 -27.34765625 117.6953125 C-27.67765625 117.6953125 -28.00765625 117.6953125 -28.34765625 117.6953125 Z M73.65234375 117.6953125 C71.83576854 120.96389845 70.02479145 124.23555266 68.21484375 127.5078125 C67.44043945 128.9009668 67.44043945 128.9009668 66.65039062 130.32226562 C66.15732422 131.21494141 65.66425781 132.10761719 65.15625 133.02734375 C64.70064697 133.84952393 64.24504395 134.6717041 63.77563477 135.51879883 C62.53971838 137.77639704 62.53971838 137.77639704 61.65234375 140.6953125 C63.84068275 140.41000894 66.02798628 140.11675825 68.21484375 139.8203125 C69.43300781 139.65789062 70.65117187 139.49546875 71.90625 139.328125 C75.63090036 138.69893485 79.0473037 137.799559 82.65234375 136.6953125 C81.67476374 133.90308091 80.69535452 131.11151478 79.71484375 128.3203125 C79.2981543 127.12921875 79.2981543 127.12921875 78.87304688 125.9140625 C78.60556641 125.15351563 78.33808594 124.39296875 78.0625 123.609375 C77.81636963 122.9076416 77.57023926 122.2059082 77.31665039 121.48291016 C76.66466611 119.63026155 76.66466611 119.63026155 75.65234375 117.6953125 C74.99234375 117.6953125 74.33234375 117.6953125 73.65234375 117.6953125 Z M-38.34765625 148.6953125 C-42.37488449 164.67758305 -45.37460582 182.77291102 -37.54296875 198.07421875 C-35.46434224 200.89327105 -33.46963225 202.47054268 -30.0078125 203.1640625 C-12.98063681 203.3689007 1.53166806 192.72576869 13.65234375 181.6953125 C14.31234375 180.7053125 14.97234375 179.7153125 15.65234375 178.6953125 C15.04648438 178.06367188 14.440625 177.43203125 13.81640625 176.78125 C12.97851562 175.88664062 12.140625 174.99203125 11.27734375 174.0703125 C10.82399658 173.58828369 10.37064941 173.10625488 9.90356445 172.60961914 C7.38204527 169.85256625 5.1905651 167.09572749 3.21875 163.91796875 C-0.83532545 157.03986133 -0.83532545 157.03986133 -7.12890625 152.46875 C-10.5512116 151.9483479 -13.88758599 151.82918427 -17.34765625 151.6953125 C-21.12925885 151.22471618 -24.89282843 150.64282493 -28.66015625 150.0703125 C-30.51010915 149.80513742 -32.36034815 149.54194642 -34.2109375 149.28125 C-35.40650269 149.11181885 -35.40650269 149.11181885 -36.6262207 148.93896484 C-37.4783313 148.81835693 -37.4783313 148.81835693 -38.34765625 148.6953125 Z M67.65234375 150.4453125 C65.72648437 150.68121094 65.72648437 150.68121094 63.76171875 150.921875 C62.529375 151.08945313 61.29703125 151.25703125 60.02734375 151.4296875 C58.33738281 151.64963379 58.33738281 151.64963379 56.61328125 151.87402344 C51.15866498 153.38699583 48.63017558 157.91977918 45.40234375 162.3203125 C41.27925153 167.88614512 37.01807964 173.31843887 32.65234375 178.6953125 C41.31869612 190.00971698 54.16722341 198.20027239 67.65234375 202.6953125 C72.99502713 203.28242056 77.27343024 203.42237599 82.08984375 200.8828125 C88.12930411 194.6724036 89.14549171 185.3073335 89.15039062 177.07226562 C89.12041992 175.43161133 89.12041992 175.43161133 89.08984375 173.7578125 C89.09693359 172.66791016 89.10402344 171.57800781 89.11132812 170.45507812 C89.05243901 162.83120321 87.81318341 155.99771577 85.65234375 148.6953125 C79.58337677 148.6953125 73.6602481 149.63702015 67.65234375 150.4453125 Z M10.65234375 154.6953125 C13.48417035 158.94305241 16.007233 162.37563316 19.40234375 166.0703125 C20.2015625 166.94429687 21.00078125 167.81828125 21.82421875 168.71875 C22.4275 169.37101563 23.03078125 170.02328125 23.65234375 170.6953125 C28.50837638 166.14278191 32.67353771 161.02671514 36.65234375 155.6953125 C36.65234375 155.3653125 36.65234375 155.0353125 36.65234375 154.6953125 C28.07234375 154.6953125 19.49234375 154.6953125 10.65234375 154.6953125 Z " fill="#06A5D0" transform="translate(102.34765625,8.3046875)"/>
<path d="M0 0 C23 0 23 0 28.21875 4.84375 C29.94750977 8.02392578 29.94750977 8.02392578 31.5 11.5 C32.116698 12.69360772 32.74314781 13.88222148 33.37866211 15.06591797 C34.67574704 17.49895775 35.92951437 19.94754355 37.15576172 22.41699219 C39.91306815 27.88329225 43.25490518 32.98023334 46.5625 38.125 C47.80584057 40.10523142 49.04672848 42.08700493 50.28515625 44.0703125 C50.89762207 45.04774414 51.51008789 46.02517578 52.14111328 47.03222656 C55.26464404 52.01904557 58.3819926 57.00972641 61.5 62 C62.73694987 63.97918498 63.97392911 65.9583516 65.2109375 67.9375 C73.140625 80.625 81.0703125 93.3125 89 106 C89.33 71.02 89.66 36.04 90 0 C95.94 0 101.88 0 108 0 C108 44.88 108 89.76 108 136 C100.74 136 93.48 136 86 136 C78.75160698 126.93950872 78.75160698 126.93950872 76.78125 122.6171875 C73.95884261 116.76580523 70.55357478 111.42931275 67 106 C65.812409 104.14104197 64.62749478 102.28037107 63.4453125 100.41796875 C62.5795459 99.05744385 62.5795459 99.05744385 61.69628906 97.66943359 C56.62441364 89.68787259 51.58548584 81.68541899 46.54101562 73.68652344 C45.0693617 71.35329374 43.5973179 69.02031077 42.125 66.6875 C41.641521 65.92139404 41.15804199 65.15528809 40.65991211 64.3659668 C36.00472717 56.99582863 31.32185526 49.64335538 26.63134766 42.2956543 C26.07108887 41.4169165 25.51083008 40.53817871 24.93359375 39.6328125 C24.43915771 38.85824707 23.94472168 38.08368164 23.43530273 37.28564453 C21.92329702 34.87785451 20.46279875 32.43799792 19 30 C18.67 64.98 18.34 99.96 18 136 C12.06 136 6.12 136 0 136 C0 91.12 0 46.24 0 0 Z " fill="#05A5D1" transform="translate(858,39)"/>
<path d="M0 0 C11.4675 -0.04125 22.935 -0.0825 34.75 -0.125 C40.14617676 -0.15231201 40.14617676 -0.15231201 45.65136719 -0.18017578 C50.10400391 -0.18920898 50.10400391 -0.18920898 52.20001221 -0.19088745 C53.63866418 -0.19392347 55.07731164 -0.20088291 56.51593018 -0.21115112 C72.36776268 -0.31846527 87.91892738 0.27426057 100.01953125 11.7109375 C108.19384297 21.15895854 108.66884795 31.89872089 108.17480469 43.81201172 C107.46307093 52.72061224 103.19071061 58.8922007 97 65 C96.2265625 65.79277344 96.2265625 65.79277344 95.4375 66.6015625 C94.30782706 67.75049123 93.15673297 68.87831955 92 70 C92.886875 70.53625 93.77375 71.0725 94.6875 71.625 C100.09736071 75.25715234 103.44506889 79.65069796 105 86 C106.2784081 93.26674077 106.32856652 100.56940797 106.51757812 107.93164062 C106.84369699 120.97405459 106.84369699 120.97405459 113 132 C113 133.32 113 134.64 113 136 C105.41 136 97.82 136 90 136 C87.87804023 131.75608046 87.6548647 129.38644225 87.4375 124.70703125 C87.38227173 123.6488343 87.38227173 123.6488343 87.32592773 122.56925964 C87.20885338 120.31733389 87.10319101 118.06510179 87 115.8125 C87.05204896 97.87295912 87.05204896 97.87295912 78.76416016 82.93896484 C69.12909801 76.18029468 50.96042851 78.55700863 39.625 78.375 C32.81875 78.25125 26.0125 78.1275 19 78 C19 97.14 19 116.28 19 136 C12.73 136 6.46 136 0 136 C0 91.12 0 46.24 0 0 Z M19 17 C19 31.85 19 46.7 19 62 C25.93804255 62.06912441 32.8748749 62.12878395 39.81298828 62.16479492 C42.16980046 62.17981778 44.52658498 62.20024196 46.88330078 62.22631836 C50.28424942 62.26298821 53.68482621 62.27979196 57.0859375 62.29296875 C58.12801361 62.30845261 59.17008972 62.32393646 60.2437439 62.33988953 C68.04287811 62.34165626 75.99801769 61.562872 82.4375 56.75 C87.741241 51.05818039 88.97683533 44.56326531 89 37 C88.48821876 30.17995868 86.16767805 25.50641119 81 21 C75.90168886 17.94101331 71.65820397 16.87218883 65.77246094 16.88647461 C64.73168396 16.88655014 63.69090698 16.88662567 62.61859131 16.88670349 C61.50179993 16.89186478 60.38500854 16.89702606 59.234375 16.90234375 C58.08584045 16.9037587 56.93730591 16.90517365 55.75396729 16.90663147 C52.08595169 16.91222857 48.41799715 16.92478056 44.75 16.9375 C42.26302171 16.94251537 39.77604247 16.94707822 37.2890625 16.95117188 C31.19266589 16.9613461 25.09640129 16.98092225 19 17 Z " fill="#05A5D1" transform="translate(315,39)"/>
<path d="M0 0 C3.86316503 5.28344629 5.1218029 10.1279099 5.20532227 16.58276367 C5.21522186 17.24644455 5.22512146 17.91012543 5.23532104 18.59391785 C5.2668809 20.78523199 5.29167155 22.97656781 5.31640625 25.16796875 C5.33698055 26.68826355 5.35797715 28.20855269 5.37937927 29.72883606 C5.43455084 33.72858087 5.48398175 37.72837689 5.53222656 41.72821045 C5.5824775 45.81038974 5.63814481 49.89249474 5.69335938 53.97460938 C5.80088082 61.9830101 5.90233911 69.99147299 6 78 C9.3 78.33 12.6 78.66 16 79 C16 83.29 16 87.58 16 92 C8.49924444 94.36134897 1.90111818 94.80607323 -5.375 91.4375 C-8.69013456 88.35916077 -10.291684 85.14015406 -12 81 C-12.9075 81.86625 -13.815 82.7325 -14.75 83.625 C-23.97174098 91.50268157 -35.25713869 95.56513008 -47.32421875 95.24609375 C-57.81521794 94.28122813 -64.78367376 91.07142829 -72.25 83.8125 C-77.4698161 75.42350984 -79.21392083 67.1209463 -77.5625 57.43359375 C-75.58938773 49.35616541 -71.03609855 43.86948996 -64.25 39.1875 C-54.32847758 33.66778856 -42.66332163 33.01944112 -31.59033203 31.77050781 C-29.61374319 31.5444757 -27.63886188 31.30366669 -25.6640625 31.0625 C-24.50342285 30.92972656 -23.3427832 30.79695313 -22.14697266 30.66015625 C-18.83865028 29.96615286 -16.72383591 28.97826717 -14 27 C-12.13997307 23.27994615 -12.56968681 19.05991138 -13 15 C-14.78896483 10.90028894 -16.57820678 8.90779671 -20.625 7.1875 C-30.33663153 4.17168836 -40.25004803 4.22770173 -49.5 8.6875 C-53.89716932 12.75488162 -54.85038461 17.25192306 -56 23 C-61.61 23 -67.22 23 -73 23 C-72.55202587 14.15251096 -71.46225474 7.23164468 -65.75 0.25 C-48.02048635 -14.25596572 -17.72753668 -15.75448875 0 0 Z M-17.875 43.3125 C-23.19096856 44.97083421 -28.50098117 45.69683856 -34 46.4375 C-46.13587564 48.06562265 -46.13587564 48.06562265 -56.5 54.1875 C-58.89601951 58.68003658 -60.4926791 63.08498201 -59.625 68.21875 C-58.12936969 72.77362413 -56.2123397 75.51089018 -52 78 C-44.75451877 81.10520624 -37.12184644 80.45625137 -29.8046875 77.87109375 C-23.28777551 74.87396756 -17.69681138 71.29786131 -14 65 C-12.08141473 59.71749523 -11.74349186 55.09089988 -11.875 49.5625 C-11.88402344 48.83095703 -11.89304687 48.09941406 -11.90234375 47.34570312 C-11.92563847 45.56365702 -11.9614981 43.78178241 -12 42 C-14.27538293 42 -15.72215358 42.56551592 -17.875 43.3125 Z " fill="#05A5D1" transform="translate(1065,84)"/>
<path d="M0 0 C3.86316503 5.28344629 5.1218029 10.1279099 5.20532227 16.58276367 C5.21522186 17.24644455 5.22512146 17.91012543 5.23532104 18.59391785 C5.2668809 20.78523199 5.29167155 22.97656781 5.31640625 25.16796875 C5.33698055 26.68826355 5.35797715 28.20855269 5.37937927 29.72883606 C5.43455084 33.72858087 5.48398175 37.72837689 5.53222656 41.72821045 C5.5824775 45.81038974 5.63814481 49.89249474 5.69335938 53.97460938 C5.80088082 61.9830101 5.90233911 69.99147299 6 78 C9.3 78.33 12.6 78.66 16 79 C16 83.29 16 87.58 16 92 C8.49924444 94.36134897 1.90111818 94.80607323 -5.375 91.4375 C-8.69013456 88.35916077 -10.291684 85.14015406 -12 81 C-12.9075 81.86625 -13.815 82.7325 -14.75 83.625 C-23.97174098 91.50268157 -35.25713869 95.56513008 -47.32421875 95.24609375 C-57.81521794 94.28122813 -64.78367376 91.07142829 -72.25 83.8125 C-77.4698161 75.42350984 -79.21392083 67.1209463 -77.5625 57.43359375 C-75.58938773 49.35616541 -71.03609855 43.86948996 -64.25 39.1875 C-54.32847758 33.66778856 -42.66332163 33.01944112 -31.59033203 31.77050781 C-29.61374319 31.5444757 -27.63886188 31.30366669 -25.6640625 31.0625 C-24.50342285 30.92972656 -23.3427832 30.79695313 -22.14697266 30.66015625 C-18.83865028 29.96615286 -16.72383591 28.97826717 -14 27 C-12.13997307 23.27994615 -12.56968681 19.05991138 -13 15 C-14.78896483 10.90028894 -16.57820678 8.90779671 -20.625 7.1875 C-30.33663153 4.17168836 -40.25004803 4.22770173 -49.5 8.6875 C-53.89716932 12.75488162 -54.85038461 17.25192306 -56 23 C-61.61 23 -67.22 23 -73 23 C-72.55202587 14.15251096 -71.46225474 7.23164468 -65.75 0.25 C-48.02048635 -14.25596572 -17.72753668 -15.75448875 0 0 Z M-17.875 43.3125 C-23.19096856 44.97083421 -28.50098117 45.69683856 -34 46.4375 C-46.13587564 48.06562265 -46.13587564 48.06562265 -56.5 54.1875 C-58.89601951 58.68003658 -60.4926791 63.08498201 -59.625 68.21875 C-58.12936969 72.77362413 -56.2123397 75.51089018 -52 78 C-44.75451877 81.10520624 -37.12184644 80.45625137 -29.8046875 77.87109375 C-23.28777551 74.87396756 -17.69681138 71.29786131 -14 65 C-12.08141473 59.71749523 -11.74349186 55.09089988 -11.875 49.5625 C-11.88402344 48.83095703 -11.89304687 48.09941406 -11.90234375 47.34570312 C-11.92563847 45.56365702 -11.9614981 43.78178241 -12 42 C-14.27538293 42 -15.72215358 42.56551592 -17.875 43.3125 Z " fill="#05A5D1" transform="translate(625,84)"/>
<path d="M0 0 C10.63465972 6.99524284 16.84966475 16.01011605 19.57421875 28.546875 C20.46085871 36.12361651 20.26171875 43.79343202 20.26171875 51.421875 C-3.49828125 51.421875 -27.25828125 51.421875 -51.73828125 51.421875 C-48.73415021 68.6598881 -48.73415021 68.6598881 -37.73828125 80.421875 C-31.0726149 84.02493789 -23.37009652 83.89756072 -16.16015625 82.20703125 C-9.13585514 79.92979815 -4.2735917 75.88957473 -0.73828125 69.421875 C-0.07828125 67.771875 0.58171875 66.121875 1.26171875 64.421875 C7.20171875 64.421875 13.14171875 64.421875 19.26171875 64.421875 C16.0928505 77.09734799 10.73271102 86.53691544 -0.55078125 93.859375 C-12.51641752 100.35763593 -26.55937459 101.43734605 -39.61328125 97.796875 C-51.07154166 93.77175782 -59.62441276 86.44664763 -65.55078125 75.796875 C-73.09956343 59.29666531 -72.74020284 39.04096845 -66.5546875 22.19921875 C-60.42624757 8.74442853 -51.192162 0.81020507 -37.73828125 -4.578125 C-25.52774956 -8.12734008 -10.86568643 -6.26210745 0 0 Z M-43.73828125 17.421875 C-49.18041399 24.31034031 -49.81019786 28.14104108 -50.73828125 37.421875 C-33.24828125 37.421875 -15.75828125 37.421875 2.26171875 37.421875 C1.24983655 28.31493519 -0.17974282 21.42739988 -6.92578125 14.984375 C-18.10633678 6.40451391 -33.76671764 7.68329185 -43.73828125 17.421875 Z " fill="#05A5D1" transform="translate(1350.73828125,79.578125)"/>
<path d="M0 0 C10.63465972 6.99524284 16.84966475 16.01011605 19.57421875 28.546875 C20.46085871 36.12361651 20.26171875 43.79343202 20.26171875 51.421875 C-3.49828125 51.421875 -27.25828125 51.421875 -51.73828125 51.421875 C-48.73415021 68.6598881 -48.73415021 68.6598881 -37.73828125 80.421875 C-31.0726149 84.02493789 -23.37009652 83.89756072 -16.16015625 82.20703125 C-9.13585514 79.92979815 -4.2735917 75.88957473 -0.73828125 69.421875 C-0.07828125 67.771875 0.58171875 66.121875 1.26171875 64.421875 C7.20171875 64.421875 13.14171875 64.421875 19.26171875 64.421875 C16.0928505 77.09734799 10.73271102 86.53691544 -0.55078125 93.859375 C-12.51641752 100.35763593 -26.55937459 101.43734605 -39.61328125 97.796875 C-51.07154166 93.77175782 -59.62441276 86.44664763 -65.55078125 75.796875 C-73.09956343 59.29666531 -72.74020284 39.04096845 -66.5546875 22.19921875 C-60.42624757 8.74442853 -51.192162 0.81020507 -37.73828125 -4.578125 C-25.52774956 -8.12734008 -10.86568643 -6.26210745 0 0 Z M-43.73828125 17.421875 C-49.18041399 24.31034031 -49.81019786 28.14104108 -50.73828125 37.421875 C-33.24828125 37.421875 -15.75828125 37.421875 2.26171875 37.421875 C1.24983655 28.31493519 -0.17974282 21.42739988 -6.92578125 14.984375 C-18.10633678 6.40451391 -33.76671764 7.68329185 -43.73828125 17.421875 Z " fill="#05A5D1" transform="translate(511.73828125,79.578125)"/>
<path d="M0 0 C9.20408577 6.36804422 13.34934614 14.87189073 15.62890625 25.6796875 C15.62890625 27.6596875 15.62890625 29.6396875 15.62890625 31.6796875 C10.01890625 31.6796875 4.40890625 31.6796875 -1.37109375 31.6796875 C-1.92796875 29.9884375 -2.48484375 28.2971875 -3.05859375 26.5546875 C-5.39030798 20.21177256 -7.52700207 16.42096812 -13.43359375 12.8046875 C-20.20787818 10.31979714 -28.97371127 10.56464672 -35.5625 13.5234375 C-43.70284348 18.72763117 -46.57184591 26.93850558 -48.95703125 35.875 C-49.59562847 40.20059252 -49.59647443 44.50033575 -49.62109375 48.8671875 C-49.64171875 49.76244141 -49.66234375 50.65769531 -49.68359375 51.58007812 C-49.73007992 59.62799696 -48.41642333 67.47129242 -43.68359375 74.1796875 C-41.37109375 77.50859605 -41.37109375 77.50859605 -41.37109375 79.6796875 C-40.64921875 79.9684375 -39.92734375 80.2571875 -39.18359375 80.5546875 C-37.46089577 81.24376669 -35.74886138 81.96137378 -34.05859375 82.7265625 C-28.01165443 84.87111656 -20.79476758 84.72898734 -14.93359375 82.0546875 C-6.9291471 77.25863475 -4.63422207 70.07058891 -1.37109375 61.6796875 C4.23890625 61.6796875 9.84890625 61.6796875 15.62890625 61.6796875 C14.96419 73.47840085 11.16610981 82.5382964 2.50390625 90.8046875 C-8.47134693 100.29238571 -21.58881877 100.49129366 -35.37109375 99.6796875 C-46.74929607 98.03632413 -54.63013401 90.59048406 -61.37109375 81.6796875 C-70.69473381 67.18698274 -71.08851657 49.31781053 -68.24609375 32.8046875 C-65.24540335 19.63264277 -58.63630234 7.67888073 -47.1875 0.22265625 C-32.74782539 -7.68812249 -14.49422095 -8.0709171 0 0 Z " fill="#05A5D1" transform="translate(719.37109375,78.3203125)"/>
<path d="M0 0 C6.6 0 13.2 0 20 0 C22.16796875 6.50390625 22.16796875 6.50390625 22.92485046 8.77482605 C24.21469339 12.64475807 25.50504068 16.51452101 26.79614258 20.3840332 C29.45310945 28.34876405 32.10627237 36.31469577 34.74467468 44.28559875 C35.93525396 47.88180941 37.12801587 51.47729442 38.32095337 55.07272339 C38.89915378 56.81742454 39.47628022 58.56248196 40.05233765 60.30789185 C40.8590263 62.7517345 41.66934571 65.19434498 42.48046875 67.63671875 C42.721604 68.37044708 42.96273926 69.10417542 43.21118164 69.86013794 C44.13383193 73.19325894 44.13383193 73.19325894 46 76 C48.80003611 67.86291704 51.59944481 59.7256186 54.39808273 51.58805466 C55.69803081 47.80827416 56.99818386 44.02856444 58.29882812 40.24902344 C59.55721693 36.5922468 60.81503758 32.93527516 62.07248688 29.27817535 C62.54904772 27.89248135 63.02580318 26.50685425 63.50276947 25.12129974 C66.38015358 16.76220501 69.21800563 8.39140342 72 0 C78.6 0 85.2 0 92 0 C88.62376238 10.12871287 88.62376238 10.12871287 87.15332031 14.08447266 C86.82105942 14.98028549 86.48879852 15.87609833 86.14646912 16.79905701 C85.79391556 17.74450882 85.441362 18.68996063 85.078125 19.6640625 C84.51213341 21.18647301 84.51213341 21.18647301 83.93470764 22.73963928 C82.70840435 26.03548299 81.47942356 29.33031906 80.25 32.625 C79.83181 33.74717926 79.41362 34.86935852 78.98275757 36.02554321 C71.13622305 57.07452224 63.12255975 78.05618002 55 99 C48.73 99 42.46 99 36 99 C32.79290348 92.01204985 30.0404154 84.92706009 27.40234375 77.70703125 C26.97101135 76.53417068 26.53967896 75.36131012 26.09527588 74.15290833 C24.94300353 71.01784261 23.79338594 67.88183155 22.64525986 64.74524689 C21.46161568 61.51295761 20.27523105 58.28167446 19.08911133 55.05029297 C17.68276969 51.218432 16.27679099 47.38643955 14.8724823 43.55383301 C12.31992745 36.58910538 9.75585733 29.62890622 7.171875 22.67578125 C6.4070269 20.61244295 5.64253583 18.54897283 4.87820435 16.48544312 C4.20368626 14.66859841 3.52462767 12.85344144 2.84545898 11.03833008 C2.45688721 9.98669678 2.06831543 8.93506348 1.66796875 7.8515625 C1.34078857 6.97322754 1.0136084 6.09489258 0.67651367 5.18994141 C0 3 0 3 0 0 Z " fill="#06A5D1" transform="translate(1181,76)"/>
<path d="M0 0 C5.94 0 11.88 0 18 0 C18 9.24 18 18.48 18 28 C22.95 28 27.9 28 33 28 C33 32.62 33 37.24 33 42 C28.05 42 23.1 42 18 42 C18.01771754 50.81464766 18.05638856 59.62851642 18.13209057 68.4428606 C18.16640064 72.53563089 18.19147667 76.62802634 18.19555664 80.72094727 C18.19983117 84.66999877 18.2282217 88.61820416 18.27343178 92.56699181 C18.28643419 94.07444012 18.29070473 95.58198956 18.28615379 97.08948708 C18.28126649 99.1996692 18.30724793 101.30736028 18.34057617 103.41723633 C18.34723801 104.61858719 18.35389984 105.81993805 18.36076355 107.05769348 C18.71459682 110.18449465 18.71459682 110.18449465 21.38764954 111.89311218 C24.12082359 113.05119457 25.8694773 113.31927714 28.8125 113.1875 C30.194375 113.125625 31.57625 113.06375 33 113 C33 117.95 33 122.9 33 128 C24.4566997 129.70866006 14.63010956 130.8702827 7 126 C1.99161857 121.10291594 0.23198054 116.41178588 -0.24050903 109.46278381 C-0.23606781 108.21702072 -0.23162659 106.97125763 -0.22705078 105.68774414 C-0.22734283 104.99421844 -0.22763489 104.30069275 -0.22793579 103.58615112 C-0.22655474 101.31902059 -0.21105222 99.05222858 -0.1953125 96.78515625 C-0.191578 95.20332519 -0.18873309 93.6214918 -0.18673706 92.03965759 C-0.17913501 87.89518747 -0.15951633 83.7508596 -0.1373291 79.60644531 C-0.11679647 75.36981124 -0.10771954 71.13315397 -0.09765625 66.89648438 C-0.07626688 58.59758399 -0.04111304 50.29882613 0 42 C-4.29 42 -8.58 42 -13 42 C-13 37.38 -13 32.76 -13 28 C-8.71 28 -4.42 28 0 28 C0 18.76 0 9.52 0 0 Z " fill="#05A5D1" transform="translate(1100,48)"/>
<path d="M0 0 C5.94 0 11.88 0 18 0 C18 9.24 18 18.48 18 28 C22.95 28 27.9 28 33 28 C33 32.62 33 37.24 33 42 C28.05 42 23.1 42 18 42 C18.01771754 50.81464766 18.05638856 59.62851642 18.13209057 68.4428606 C18.16640064 72.53563089 18.19147667 76.62802634 18.19555664 80.72094727 C18.19983117 84.66999877 18.2282217 88.61820416 18.27343178 92.56699181 C18.28643419 94.07444012 18.29070473 95.58198956 18.28615379 97.08948708 C18.28126649 99.1996692 18.30724793 101.30736028 18.34057617 103.41723633 C18.34723801 104.61858719 18.35389984 105.81993805 18.36076355 107.05769348 C18.71459682 110.18449465 18.71459682 110.18449465 21.38764954 111.89311218 C24.12082359 113.05119457 25.8694773 113.31927714 28.8125 113.1875 C30.194375 113.125625 31.57625 113.06375 33 113 C33 117.95 33 122.9 33 128 C24.4566997 129.70866006 14.63010956 130.8702827 7 126 C1.99161857 121.10291594 0.23198054 116.41178588 -0.24050903 109.46278381 C-0.23606781 108.21702072 -0.23162659 106.97125763 -0.22705078 105.68774414 C-0.22734283 104.99421844 -0.22763489 104.30069275 -0.22793579 103.58615112 C-0.22655474 101.31902059 -0.21105222 99.05222858 -0.1953125 96.78515625 C-0.191578 95.20332519 -0.18873309 93.6214918 -0.18673706 92.03965759 C-0.17913501 87.89518747 -0.15951633 83.7508596 -0.1373291 79.60644531 C-0.11679647 75.36981124 -0.10771954 71.13315397 -0.09765625 66.89648438 C-0.07626688 58.59758399 -0.04111304 50.29882613 0 42 C-4.29 42 -8.58 42 -13 42 C-13 37.38 -13 32.76 -13 28 C-8.71 28 -4.42 28 0 28 C0 18.76 0 9.52 0 0 Z " fill="#05A5D1" transform="translate(754,48)"/>
<path d="M0 0 C5.94 0 11.88 0 18 0 C18 32.67 18 65.34 18 99 C12.06 99 6.12 99 0 99 C0 66.33 0 33.66 0 0 Z " fill="#07A7D3" transform="translate(1150,76)"/>
<path d="M0 0 C5.04893877 4.98825441 6.24166602 10.63654618 6.375 17.60546875 C5.50437155 24.49223761 2.76654287 30.16745202 -2.625 34.60546875 C-8.60258299 38.46455968 -14.6024616 39.66714385 -21.625 38.60546875 C-28.848163 36.71396944 -33.43955176 32.69339346 -37.625 26.60546875 C-40.52326876 20.80893122 -40.72934336 14.09827565 -38.78515625 7.94921875 C-35.69204681 1.03398419 -31.52246956 -3.41432695 -24.4609375 -6.26953125 C-15.16198041 -8.8982117 -7.1497258 -6.13570219 0 0 Z " fill="#05A5CD" transform="translate(142.625,95.39453125)"/>
<path d="M0 0 C5.94 0 11.88 0 18 0 C18 6.6 18 13.2 18 20 C12.06 20 6.12 20 0 20 C0 13.4 0 6.8 0 0 Z " fill="#08A7D3" transform="translate(1150,39)"/>
</svg>
